<?xml version="1.0" encoding="utf-8"?>
<!-- Generator: Adobe Illustrator 22.0.0, SVG Export Plug-In . SVG Version: 6.00 Build 0)  -->
<svg version="1.1" id="图层_1" xmlns="http://www.w3.org/2000/svg" xmlns:xlink="http://www.w3.org/1999/xlink" x="0px" y="0px"
	 viewBox="0 0 750 1125" style="enable-background:new 0 0 750 1125;" xml:space="preserve">
<style type="text/css">
	.st0{fill:#FF8500;}
	.st1{fill:#161317;}
	.st2{fill:#2DD097;}
	.st3{fill:#FFFFFF;}
</style>
<g>
	<g>
		<g>
			<g>
				<g>
					<circle class="st0" cx="484.3" cy="595.5" r="170.7"/>
				</g>
				<g>
					<path class="st1" d="M484.3,768c-95.1,0-172.5-77.4-172.5-172.5S389.2,423,484.3,423s172.5,77.4,172.5,172.5
						C656.8,690.7,579.4,768,484.3,768z M484.3,426.6c-93.2,0-169,75.8-169,169s75.8,169,169,169s169-75.8,169-169
						S577.5,426.6,484.3,426.6z"/>
				</g>
			</g>
			<g>
				<g>
					<path class="st2" d="M613.2,440.4c30.8-8.4,58.3,17.7,58.3,17.7s-16,35.6-44.5,41.7c-33.1,7.1-58.3-17.7-58.3-17.7
						S585.1,448.1,613.2,440.4z"/>
				</g>
				<g>
					<path class="st1" d="M613.3,503.1c-17.1,0-33.9-7-45.9-19.8l-0.7-0.7l0.3-1c6.5-21.4,24-37.8,45.8-42.9
						c21.7-5.1,44.7,1.9,60,18.2l0.7,0.7l-0.3,1c-6.5,21.4-24,37.8-45.8,42.9C622.8,502.6,618.1,503.1,613.3,503.1z M570.7,481.6
						c14.4,14.9,35.8,21.2,56,16.4c20.2-4.7,36.5-19.8,42.9-39.5c-14.4-14.9-35.8-21.2-56-16.4C593.5,446.8,577.1,461.9,570.7,481.6
						z"/>
				</g>
			</g>
			<g>
				<g>
					<path class="st2" d="M555.9,424.8c9.4-27.6,45.1-40.1,45.1-40.1s22.4,31.4,14.1,59.3c-8.4,27.9-44.3,41.8-44.3,41.8
						S545.4,455.9,555.9,424.8z"/>
				</g>
				<g>
					<path class="st1" d="M570.2,487.8l-0.7-0.7c-15.3-16.3-20.9-39.7-14.5-61c6.4-21.4,23.9-37.9,45.6-43.1l1-0.2l0.7,0.7
						c15.3,16.3,20.9,39.7,14.5,61c-6.4,21.4-23.9,37.9-45.6,43.1L570.2,487.8z M600.5,386.7c-20.1,5.2-36.1,20.6-42.1,40.4
						c-5.9,19.9-1,41.5,13,56.9c20.1-5.2,36.1-20.6,42.1-40.4C619.4,423.7,614.4,402,600.5,386.7z"/>
				</g>
			</g>
		</g>
		<g>
			<path class="st3" d="M361.9,550.3c-0.8,0-1.7-0.2-2.5-0.5c-3.2-1.4-4.7-5.1-3.3-8.3c25.9-59.6,69-76.2,100.6-79.5
				c33.9-3.6,61.4,6.7,62.6,7.2c3.3,1.2,4.9,4.9,3.6,8.2c-1.2,3.3-4.9,4.9-8.1,3.6l0,0c-0.3-0.1-26.2-9.8-57.2-6.3
				c-40.9,4.5-71.1,28.7-89.9,72C366.7,548.9,364.4,550.3,361.9,550.3z"/>
		</g>
	</g>
	<g>
		<g>
			<g>
				<circle class="st0" cx="289.7" cy="632.7" r="152.5"/>
			</g>
			<g>
				<path class="st1" d="M289.7,787c-85.1,0-154.3-69.2-154.3-154.3s69.2-154.3,154.3-154.3S444,547.7,444,632.7
					S374.8,787,289.7,787z M289.7,482C206.6,482,139,549.6,139,632.7s67.6,150.7,150.7,150.7s150.7-67.6,150.7-150.7
					S372.9,482,289.7,482z"/>
			</g>
		</g>
		<g>
			<g>
				<circle class="st3" cx="289.7" cy="632.7" r="132.1"/>
			</g>
			<g>
				<path class="st1" d="M289.7,766.5c-73.8,0-133.8-60-133.8-133.8s60-133.8,133.8-133.8s133.8,60,133.8,133.8
					S363.5,766.5,289.7,766.5z M289.7,502.4c-71.9,0-130.3,58.5-130.3,130.3S217.9,763,289.7,763S420,704.5,420,632.7
					S361.6,502.4,289.7,502.4z"/>
			</g>
		</g>
		<g>
			<g>
				<path class="st0" d="M280.6,622.7L217,555.2c-6.3-6.7-4-17.6,4.4-21.3l41.9-18c8.3-3.6,17.6,2,18.4,11l8.2,91.6
					C290.5,623.7,284.2,626.5,280.6,622.7z"/>
			</g>
			<g>
				<path class="st0" d="M276.2,632.1l-92.7-2.8c-9.2-0.3-15.3-9.6-11.9-18.2l16.9-42.4c3.3-8.4,13.9-11,20.8-5.3l70.6,59
					C283.9,625.8,281.4,632.3,276.2,632.1z"/>
			</g>
			<g>
				<path class="st0" d="M279.8,641.8l-67.6,63.6c-6.7,6.3-17.6,4-21.3-4.4l-18-41.9c-3.6-8.3,2-17.6,11-18.4l91.6-8.2
					C280.7,632,283.5,638.3,279.8,641.8z"/>
			</g>
			<g>
				<path class="st0" d="M289.1,646.2l-2.8,92.7c-0.3,9.2-9.6,15.3-18.2,11.9L225.8,734c-8.4-3.3-11-13.9-5.3-20.8l59-70.6
					C282.8,638.6,289.3,641.1,289.1,646.2z"/>
			</g>
			<g>
				<path class="st0" d="M298.9,642.7l63.6,67.6c6.3,6.7,4,17.6-4.4,21.3l-41.9,18c-8.3,3.6-17.6-2-18.4-11l-8.2-91.6
					C289,641.8,295.3,638.9,298.9,642.7z"/>
			</g>
			<g>
				<path class="st0" d="M303.2,633.3l92.7,2.8c9.2,0.3,15.3,9.6,11.9,18.2L391,696.6c-3.3,8.4-13.9,11-20.8,5.3l-70.6-59
					C295.6,639.6,298.1,633.2,303.2,633.3z"/>
			</g>
			<g>
				<path class="st0" d="M299.7,623.6l67.6-63.6c6.7-6.3,17.6-4,21.3,4.4l18,41.9c3.6,8.3-2,17.6-11,18.4l-91.6,8.2
					C298.8,633.4,296,627.1,299.7,623.6z"/>
			</g>
			<g>
				<path class="st0" d="M290.3,619.2l2.8-92.7c0.3-9.2,9.6-15.3,18.2-11.9l42.4,16.9c8.4,3.3,11,13.9,5.3,20.8l-59,70.6
					C296.6,626.8,290.2,624.4,290.3,619.2z"/>
			</g>
		</g>
	</g>
</g>
</svg>
